<?xml version="1.0" encoding="iso-8859-1"?>
<!-- Generator: Adobe Illustrator 20.1.0, SVG Export Plug-In . SVG Version: 6.00 Build 0)  -->
<svg xmlns="http://www.w3.org/2000/svg" xmlns:xlink="http://www.w3.org/1999/xlink" version="1.1" id="&#1057;&#1083;&#1086;&#1081;_1" x="0px" y="0px" viewBox="0 0 64 64" style="enable-background:new 0 0 64 64;" xml:space="preserve">
<linearGradient id="SVGID_1__46079" gradientUnits="userSpaceOnUse" x1="47" y1="44.625" x2="47" y2="53.3134" spreadMethod="reflect">
	<stop offset="0" style="stop-color:#6DC7FF"/>
	<stop offset="1" style="stop-color:#E6ABFF"/>
</linearGradient>
<circle style="fill:url(#SVGID_1__46079);" cx="47" cy="49" r="4"/>
<linearGradient id="SVGID_2__46079" gradientUnits="userSpaceOnUse" x1="29" y1="44.625" x2="29" y2="53.3134" spreadMethod="reflect">
	<stop offset="0" style="stop-color:#6DC7FF"/>
	<stop offset="1" style="stop-color:#E6ABFF"/>
</linearGradient>
<circle style="fill:url(#SVGID_2__46079);" cx="29" cy="49" r="4"/>
<linearGradient id="SVGID_3__46079" gradientUnits="userSpaceOnUse" x1="32" y1="9.75" x2="32" y2="55.0028" spreadMethod="reflect">
	<stop offset="0" style="stop-color:#1A6DFF"/>
	<stop offset="1" style="stop-color:#C822FF"/>
</linearGradient>
<path style="fill:url(#SVGID_3__46079);" d="M55,19h-7.059c-0.5-4.493-4.316-8-8.941-8s-8.441,3.507-8.941,8h-8.257l-1.48-6.662  C20.017,10.961,18.818,10,17.408,10H9c-1.654,0-3,1.346-3,3s1.346,3,3,3h4c1.654,0,3-1.346,3-3v-1h1.408  c0.465,0,0.859,0.316,0.96,0.771l4.959,22.314C23.841,37.391,25.848,39,28.208,39h21.774c2.221,0,4.197-1.491,4.809-3.627  l3.016-10.559C57.935,24.368,58,23.905,58,23.439V22C58,20.346,56.654,19,55,19z M14,13c0,0.552-0.448,1-1,1H9c-0.552,0-1-0.448-1-1  s0.448-1,1-1h5V13z M39,13c3.859,0,7,3.141,7,7s-3.141,7-7,7s-7-3.141-7-7S35.141,13,39,13z M56,23.439  c0,0.279-0.039,0.557-0.116,0.825l-3.017,10.559C52.501,36.105,51.314,37,49.982,37H28.208c-1.416,0-2.62-0.966-2.928-2.349  L22.247,21h7.813c0.5,4.493,4.316,8,8.941,8s8.441-3.507,8.941-8H55c0.552,0,1,0.448,1,1V23.439z"/>
<linearGradient id="SVGID_4__46079" gradientUnits="userSpaceOnUse" x1="39" y1="9.75" x2="39" y2="55.0028" spreadMethod="reflect">
	<stop offset="0" style="stop-color:#1A6DFF"/>
	<stop offset="1" style="stop-color:#C822FF"/>
</linearGradient>
<polygon style="fill:url(#SVGID_4__46079);" points="36.879,23.535 39,21.414 41.121,23.535 42.535,22.121 40.414,20 42.535,17.879   41.121,16.465 39,18.586 36.879,16.465 35.465,17.879 37.586,20 35.465,22.121 "/>
<linearGradient id="SVGID_5__46079" gradientUnits="userSpaceOnUse" x1="39" y1="9.75" x2="39" y2="55.0028" spreadMethod="reflect">
	<stop offset="0" style="stop-color:#1A6DFF"/>
	<stop offset="1" style="stop-color:#C822FF"/>
</linearGradient>
<rect x="30" y="33" style="fill:url(#SVGID_5__46079);" width="18" height="2"/>
<linearGradient id="SVGID_6__46079" gradientUnits="userSpaceOnUse" x1="38" y1="9.75" x2="38" y2="55.0028" spreadMethod="reflect">
	<stop offset="0" style="stop-color:#1A6DFF"/>
	<stop offset="1" style="stop-color:#C822FF"/>
</linearGradient>
<path style="fill:url(#SVGID_6__46079);" d="M47,44c-2.415,0-4.434,1.721-4.899,4h-8.202c-0.465-2.279-2.484-4-4.899-4  c-2.757,0-5,2.243-5,5s2.243,5,5,5c2.415,0,4.434-1.721,4.899-4h8.202c0.465,2.279,2.484,4,4.899,4c2.757,0,5-2.243,5-5  S49.757,44,47,44z M29,52c-1.654,0-3-1.346-3-3s1.346-3,3-3s3,1.346,3,3S30.654,52,29,52z M47,52c-1.654,0-3-1.346-3-3s1.346-3,3-3  s3,1.346,3,3S48.654,52,47,52z"/>
</svg>
